<svg width="24" height="24" viewBox="0 0 24 24" fill="none" xmlns="http://www.w3.org/2000/svg">
<path d="M4 7H21M10.375 17V11M14.625 17V11M16.75 21H8.25C7.0764 21 6.125 20.1046 6.125 19V8C6.125 7.44772 6.6007 7 7.1875 7H17.8125C18.3993 7 18.875 7.44772 18.875 8V19C18.875 20.1046 17.9236 21 16.75 21ZM10.375 7H14.625C15.2118 7 15.6875 6.55228 15.6875 6V5C15.6875 4.44772 15.2118 4 14.625 4H10.375C9.7882 4 9.3125 4.44772 9.3125 5V6C9.3125 6.55228 9.7882 7 10.375 7Z" stroke="black" stroke-width="1.5" stroke-linecap="round" stroke-linejoin="round"/>
</svg>
