<svg width="24" height="24" viewBox="0 0 24 24" fill="none" xmlns="http://www.w3.org/2000/svg">
<path d="M15.3577 4H8.65032C5.73687 4 4 5.73687 4 8.65032V15.3497C4 18.2711 5.73687 20.008 8.65032 20.008H15.3497C18.2631 20.008 20 18.2711 20 15.3577V8.65032C20.008 5.73687 18.2711 4 15.3577 4ZM15.0055 15.0055H9.00249C8.67433 15.0055 8.40219 14.7333 8.40219 14.4052C8.40219 14.077 8.67433 13.8049 9.00249 13.8049H15.0055C15.3336 13.8049 15.6058 14.077 15.6058 14.4052C15.6058 14.7333 15.3336 15.0055 15.0055 15.0055ZM15.0055 10.2031H9.00249C8.67433 10.2031 8.40219 9.93096 8.40219 9.60279C8.40219 9.27463 8.67433 9.00249 9.00249 9.00249H15.0055C15.3336 9.00249 15.6058 9.27463 15.6058 9.60279C15.6058 9.93096 15.3336 10.2031 15.0055 10.2031Z" fill="#FFD051"/>
</svg>
