<svg width="24" height="24" viewBox="0 0 24 24" fill="none" xmlns="http://www.w3.org/2000/svg">
<path d="M16 5H8C5.6 5 4 6.2 4 9V14.6C4 17.4 5.6 18.6 8 18.6H16C18.4 18.6 20 17.4 20 14.6V9C20 6.2 18.4 5 16 5ZM16.376 9.872L13.872 11.872C13.344 12.296 12.672 12.504 12 12.504C11.328 12.504 10.648 12.296 10.128 11.872L7.624 9.872C7.368 9.664 7.328 9.28 7.528 9.024C7.736 8.768 8.112 8.72 8.368 8.928L10.872 10.928C11.48 11.416 12.512 11.416 13.12 10.928L15.624 8.928C15.88 8.72 16.264 8.76 16.464 9.024C16.672 9.28 16.632 9.664 16.376 9.872Z" fill="#FF7474"/>
</svg>
