<svg width="24" height="24" viewBox="0 0 24 24" fill="none" xmlns="http://www.w3.org/2000/svg">
<path d="M16 4H8C5.792 4 4 5.784 4 7.984V12.768V13.568C4 15.768 5.792 17.552 8 17.552H9.2C9.416 17.552 9.704 17.696 9.84 17.872L11.04 19.464C11.568 20.168 12.432 20.168 12.96 19.464L14.16 17.872C14.312 17.672 14.552 17.552 14.8 17.552H16C18.208 17.552 20 15.768 20 13.568V7.984C20 5.784 18.208 4 16 4ZM8.8 12C8.352 12 8 11.64 8 11.2C8 10.76 8.36 10.4 8.8 10.4C9.24 10.4 9.6 10.76 9.6 11.2C9.6 11.64 9.248 12 8.8 12ZM12 12C11.552 12 11.2 11.64 11.2 11.2C11.2 10.76 11.56 10.4 12 10.4C12.44 10.4 12.8 10.76 12.8 11.2C12.8 11.64 12.448 12 12 12ZM15.2 12C14.752 12 14.4 11.64 14.4 11.2C14.4 10.76 14.76 10.4 15.2 10.4C15.64 10.4 16 10.76 16 11.2C16 11.64 15.648 12 15.2 12Z" fill="#6AAAFB"/>
</svg>
