<svg width="24" height="24" viewBox="0 0 24 24" fill="none" xmlns="http://www.w3.org/2000/svg">
<path d="M6.60039 20.3984V14.9984C6.60039 14.3357 7.13765 13.7984 7.80039 13.7984H16.2004C16.8631 13.7984 17.4004 14.3357 17.4004 14.9984V20.9984M17.4004 3.59844V5.99844C17.4004 6.66118 16.8631 7.19844 16.2004 7.19844L7.80039 7.19844C7.13765 7.19844 6.60039 6.66118 6.60039 5.99844L6.60039 2.39844M20.9979 6.59591L17.4029 3.00097C17.0171 2.61518 16.4939 2.39844 15.9483 2.39844H4.45753C3.32139 2.39844 2.40039 3.31944 2.40039 4.45558V19.5413C2.40039 20.6774 3.32139 21.5984 4.45753 21.5984H19.5432C20.6794 21.5984 21.6004 20.6774 21.6004 19.5413V8.05052C21.6004 7.50494 21.3837 6.9817 20.9979 6.59591Z" stroke="black" stroke-width="1.5" stroke-linecap="round"/>
</svg>
