<svg width="24" height="24" viewBox="0 0 24 24" fill="none" xmlns="http://www.w3.org/2000/svg">
<path d="M18.6087 6.3902L13.3781 3.36984C12.5239 2.87672 11.4673 2.87672 10.6043 3.36984L5.3825 6.3902C4.52834 6.88332 4 7.79912 4 8.79417V14.8173C4 15.8035 4.52834 16.7193 5.3825 17.2212L10.6131 20.2416C11.4673 20.7347 12.5239 20.7347 13.3869 20.2416L18.6175 17.2212C19.4717 16.7281 20 15.8123 20 14.8173V8.79417C19.9912 7.79912 19.4629 6.89213 18.6087 6.3902ZM11.9956 7.70226C13.1315 7.70226 14.0473 8.61805 14.0473 9.75399C14.0473 10.8899 13.1315 11.8057 11.9956 11.8057C10.8597 11.8057 9.94386 10.8899 9.94386 9.75399C9.94386 8.62686 10.8597 7.70226 11.9956 7.70226ZM14.3555 15.9092H9.63566C8.9224 15.9092 8.50853 15.1167 8.90479 14.5267C9.50358 13.6373 10.6659 13.0385 11.9956 13.0385C13.3253 13.0385 14.4876 13.6373 15.0864 14.5267C15.4827 15.1079 15.06 15.9092 14.3555 15.9092Z" fill="#47BECF"/>
</svg>
