<?xml version="1.0" standalone="no"?>
<!DOCTYPE svg PUBLIC "-//W3C//DTD SVG 20010904//EN"
 "http://www.w3.org/TR/2001/REC-SVG-20010904/DTD/svg10.dtd">
<svg version="1.0" xmlns="http://www.w3.org/2000/svg"
 width="210.000000pt" height="30.000000pt" viewBox="0 0 210.000000 30.000000"
 preserveAspectRatio="xMidYMid meet">

<g transform="translate(0.000000,30.000000) scale(0.100000,-0.100000)"
fill="#000000" stroke="none">
<path d="M1871 273 c1 -5 1 -25 0 -46 -1 -27 -5 -36 -13 -31 -10 6 -10 4 0 -7
13 -14 16 -30 5 -28 -36 6 -50 -3 -49 -28 1 -17 6 -27 14 -25 6 1 12 -3 12 -9
0 -5 4 -8 9 -4 13 7 20 -6 23 -43 1 -17 9 -34 16 -37 10 -3 12 0 8 10 -4 11 1
15 20 15 14 0 23 4 19 9 -7 12 11 23 39 25 11 1 20 7 19 14 -3 11 16 16 45 13
6 -1 12 5 12 12 0 8 10 17 22 20 18 5 19 8 9 21 -8 9 -17 13 -22 10 -5 -3 -9
2 -9 10 0 11 -9 16 -30 16 -20 0 -30 5 -30 15 0 13 -12 17 -37 14 -3 0 -10 6
-15 15 -5 9 -16 16 -23 16 -8 0 -15 7 -15 15 0 8 -7 15 -15 15 -8 0 -14 -3
-14 -7z"/>
<path d="M20 130 c0 -26 4 -30 28 -30 26 0 28 3 24 30 -3 24 -9 30 -28 30 -20
0 -24 -5 -24 -30z"/>
<path d="M139 146 c0 -6 -2 -19 -4 -28 -2 -14 4 -18 26 -18 25 0 29 4 29 28 0
23 -4 28 -25 28 -14 0 -25 -5 -26 -10z"/>
<path d="M262 131 c2 -18 10 -27 26 -29 18 -3 22 1 22 25 0 24 -4 29 -25 29
-22 0 -25 -4 -23 -25z"/>
<path d="M374 149 c-5 -9 7 -42 19 -51 19 -12 37 4 37 33 0 25 -4 28 -26 27
-14 -2 -28 -6 -30 -9z"/>
<path d="M510 152 c-9 -4 -15 -16 -15 -27 0 -15 7 -20 30 -20 29 0 31 4 26 45
-1 11 -18 12 -41 2z"/>
<path d="M625 152 c-6 -4 -11 -16 -10 -27 0 -15 7 -20 27 -20 15 0 28 3 28 8
1 41 -2 47 -17 47 -10 0 -23 -4 -28 -8z"/>
<path d="M745 152 c-5 -4 -10 -16 -11 -28 -1 -17 5 -21 27 -22 26 -1 29 3 29
29 0 29 -21 39 -45 21z"/>
<path d="M859 158 c-1 -2 -2 -15 -3 -30 -3 -25 1 -28 26 -28 24 0 28 4 28 30
0 25 -4 30 -25 30 -14 0 -25 -1 -26 -2z"/>
<path d="M975 130 c-1 -20 4 -25 27 -27 25 -2 28 1 28 26 0 25 -4 29 -28 28
-22 -1 -27 -6 -27 -27z"/>
<path d="M1094 130 c-1 -20 4 -25 26 -27 24 -2 29 2 32 27 4 27 2 29 -27 27
-25 -2 -31 -6 -31 -27z"/>
<path d="M1214 135 c0 -24 3 -27 36 -29 17 -2 30 22 23 42 -3 6 -17 12 -32 12
-22 0 -27 -5 -27 -25z"/>
<path d="M1339 153 c0 -5 -2 -16 -4 -25 -3 -19 -2 -20 30 -22 22 -1 25 3 25
34 0 15 -7 20 -25 20 -14 0 -25 -3 -26 -7z"/>
<path d="M1457 133 c-2 -13 -1 -23 2 -24 3 0 16 -2 29 -5 19 -3 22 0 22 26 0
25 -4 29 -24 28 -17 -2 -26 -10 -29 -25z"/>
<path d="M1577 133 c-2 -13 -1 -23 2 -24 3 0 16 -2 29 -5 19 -3 22 0 22 26 0
25 -4 29 -24 28 -17 -2 -26 -10 -29 -25z"/>
<path d="M1694 144 c3 -9 6 -22 6 -30 0 -8 10 -14 25 -14 21 0 25 5 25 30 0
27 -3 30 -31 30 -24 0 -30 -3 -25 -16z"/>
</g>
</svg>
