<svg xmlns="http://www.w3.org/2000/svg" width="67" height="41" fill="none" viewBox="0 0 67 41">
    <path fill="#fff" d="M33.525 20.333c5.514 0 9.984-4.407 9.984-9.843 0-5.437-4.47-9.844-9.984-9.844s-9.984 4.407-9.984 9.844c0 5.436 4.47 9.843 9.984 9.843z"/>
    <path fill="#34A853" d="M35.663 12.121v3.92c0 .876-.713 1.586-1.595 1.586s-1.68-.71-1.68-1.586v-3.92h3.275z"/>
    <path fill="#4285F4" d="M35.663 4.936v9.604l-3.274-2.422V4.935h3.274z"/>
    <path fill="#FBBC04" d="M35.043 6.19l-4.018 3.221c-.29.232-.634.362-1.018.362-.856 0-1.6-.68-1.6-1.585 0-.457.198-.91.581-1.223l3.991-3.26 2.064 2.486z"/>
    <path fill="#EA4335" d="M32.389 4.938c0-.498.232-.94.591-1.233.298-.243.628-.353 1.088-.353.868 0 1.595.7 1.595 1.586 0 .475-.216.932-.58 1.223l-2.694 2.16V4.937z"/>
    <path fill="#fff" d="M5.307 32.919v-1.402h4.76c.047.248.076.542.076.86 0 1.05-.292 2.351-1.231 3.277-.914.939-2.082 1.44-3.631 1.44-2.87 0-5.281-2.302-5.281-5.131s2.412-5.131 5.281-5.131c1.587 0 2.716.613 3.566 1.414l-1.002.988c-.61-.563-1.434-1-2.564-1-2.094 0-3.732 1.664-3.732 3.729 0 2.065 1.638 3.73 3.732 3.73 1.359 0 2.132-.54 2.628-1.027.404-.397.67-.968.773-1.747H5.307zM17.397 33.79c0 1.903-1.51 3.304-3.363 3.304-1.854 0-3.364-1.401-3.364-3.304 0-1.914 1.51-3.304 3.364-3.304 1.854 0 3.363 1.39 3.363 3.304zm-1.472 0c0-1.19-.875-2.002-1.891-2.002-1.017 0-1.892.813-1.892 2.002 0 1.176.875 2.003 1.892 2.003 1.016 0 1.89-.825 1.89-2.003zM24.733 33.79c0 1.903-1.51 3.304-3.364 3.304-1.852 0-3.363-1.401-3.363-3.304 0-1.914 1.51-3.304 3.363-3.304 1.855 0 3.364 1.39 3.364 3.304zm-1.472 0c0-1.19-.875-2.002-1.892-2.002-1.016 0-1.89.813-1.89 2.002 0 1.176.874 2.003 1.89 2.003 1.017 0 1.892-.825 1.892-2.003zM31.768 30.688v5.931c0 2.44-1.46 3.442-3.186 3.442-1.624 0-2.602-1.076-2.97-1.953l1.281-.525c.229.539.788 1.176 1.689 1.176 1.104 0 1.79-.676 1.79-1.94v-.475h-.05c-.33.4-.965.75-1.765.75-1.675 0-3.211-1.439-3.211-3.291 0-1.865 1.535-3.317 3.211-3.317.8 0 1.434.351 1.764.739h.051v-.539h1.396v.002zm-1.295 3.116c0-1.164-.787-2.015-1.79-2.015-1.016 0-1.865.851-1.865 2.015 0 1.152.85 1.99 1.865 1.99 1.003-.001 1.79-.84 1.79-1.99zM34.261 27.215v9.678H32.79v-9.678h1.472zM39.948 34.88l1.142.75c-.368.54-1.257 1.464-2.792 1.464-1.904 0-3.325-1.451-3.325-3.304 0-1.964 1.434-3.304 3.16-3.304 1.74 0 2.59 1.364 2.87 2.103l.152.375-4.481 1.827c.342.663.876 1 1.624 1 .75.002 1.27-.36 1.65-.911zm-3.517-1.19l2.995-1.226c-.164-.413-.66-.7-1.243-.7-.748 0-1.789.65-1.752 1.926zM46.93 36.48c-.692-.406-1.236-.957-1.632-1.652-.396-.695-.593-1.461-.593-2.298 0-.83.199-1.593.593-2.293.396-.7.94-1.252 1.633-1.658.693-.406 1.464-.61 2.313-.61.849 0 1.62.204 2.313.61.693.406 1.238.96 1.64 1.658.4.7.6 1.464.6 2.293 0 .837-.2 1.604-.594 2.298-.396.695-.942 1.246-1.64 1.653-.696.406-1.469.61-2.318.61s-1.623-.204-2.314-.61zm4.063-.835c.531-.305.952-.728 1.261-1.268.31-.54.464-1.156.464-1.847 0-.692-.154-1.307-.464-1.847-.31-.54-.73-.963-1.261-1.268-.532-.305-1.115-.458-1.75-.458-.636 0-1.217.153-1.744.458-.527.305-.948.729-1.261 1.274-.314.545-.47 1.159-.47 1.842s.156 1.296.47 1.842c.313.544.734.97 1.261 1.275.527.305 1.11.457 1.743.457.636-.002 1.22-.155 1.75-.46zM54.695 30.676h1.003v.914h.05c.172-.309.448-.57.828-.787.38-.215.783-.323 1.212-.323.759 0 1.338.218 1.738.653.4.434.6 1.026.6 1.774v3.987h-1.052v-3.83c0-.576-.14-.994-.42-1.255-.281-.26-.665-.39-1.151-.39-.338 0-.641.093-.91.28-.268.187-.476.434-.624.738-.148.304-.222.624-.222.957v3.5h-1.052v-6.218zM62.45 36.664c-.479-.285-.853-.677-1.12-1.176-.268-.5-.402-1.063-.402-1.69 0-.602.126-1.154.376-1.657.252-.504.608-.906 1.07-1.208.462-.3.997-.45 1.608-.45.619 0 1.154.136 1.608.409.453.272.8.648 1.045 1.127.243.48.364 1.029.364 1.646 0 .121-.012.228-.037.317h-4.984c.025.471.14.87.347 1.195.205.326.468.569.784.732.318.163.65.244.996.244.808 0 1.43-.374 1.868-1.122l.89.427c-.272.504-.64.902-1.106 1.195-.466.293-1.029.439-1.689.439-.6-.002-1.14-.143-1.619-.428zm3.438-3.537c-.016-.26-.09-.52-.222-.78-.131-.26-.34-.48-.624-.659-.285-.178-.641-.268-1.07-.268-.494 0-.913.156-1.256.47-.342.313-.567.724-.673 1.237h3.845z"/>
</svg>
