<?xml version="1.0" encoding="utf-8"?>
<!-- Generator: Adobe Illustrator 27.1.1, SVG Export Plug-In . SVG Version: 6.00 Build 0)  -->
<svg version="1.1" id="레이어_1" xmlns="http://www.w3.org/2000/svg" xmlns:xlink="http://www.w3.org/1999/xlink" x="0px"
	 y="0px" viewBox="0 0 600 157" style="enable-background:new 0 0 600 157;" xml:space="preserve">
<style type="text/css">
	.st0{fill:#FF5E17;}
</style>
<g>
	<g>
		<g>
			<rect x="2" y="2.15" width="36.38" height="151.59"/>
		</g>
		<g>
			<polygon points="89.98,2.15 41.47,77.95 89.98,153.74 126.36,153.74 77.85,77.95 126.36,2.15 			"/>
		</g>
		<g>
			<polygon points="255.4,2.15 140.2,2.15 140.2,38.53 209.93,38.53 137.16,117.36 137.16,153.74 255.4,153.74 255.4,117.36 
				182.64,117.36 255.4,38.53 			"/>
		</g>
	</g>
	<g>
		<polygon points="309.98,153.74 273.6,153.74 325.14,2.15 361.52,2.15 		"/>
	</g>
	<g>
		<polygon class="st0" points="360.86,2.15 324.48,2.15 379.05,153.74 415.43,153.74 		"/>
	</g>
	<g>
		<polygon points="593.52,2.15 561.62,2.15 560.17,2.15 514.7,115.84 469.22,2.15 467.63,2.15 435.87,2.15 431.25,2.15 
			431.25,153.74 467.63,153.74 467.63,81.55 496.51,153.74 499.54,153.74 529.86,153.74 532.89,153.74 561.62,81.92 561.62,153.74 
			598,153.74 598,2.15 		"/>
	</g>
</g>
</svg>
