<?xml version="1.0" encoding="utf-8"?>
<!-- Generator: Adobe Illustrator 27.1.1, SVG Export Plug-In . SVG Version: 6.00 Build 0)  -->
<svg version="1.1" id="레이어_1" xmlns="http://www.w3.org/2000/svg" xmlns:xlink="http://www.w3.org/1999/xlink" x="0px"
	 y="0px" viewBox="0 0 708 157" style="enable-background:new 0 0 708 157;" xml:space="preserve">
<style type="text/css">
	.st0{fill:#FF5E17;}
	.st1{fill:#231815;}
</style>
<g>
	<g>
		<g>
			<rect x="205.22" y="19" width="30.37" height="126.53"/>
		</g>
		<g>
			<polygon points="278.65,19 238.17,82.26 278.65,145.53 309.02,145.53 268.53,82.26 309.02,19 			"/>
		</g>
		<g>
			<polygon points="416.73,19 320.57,19 320.57,49.37 378.77,49.37 318.04,115.16 318.04,145.53 416.73,145.53 416.73,115.16 
				356,115.16 416.73,49.37 			"/>
		</g>
	</g>
	<g>
		<polygon points="462.28,145.53 431.91,145.53 474.93,19 505.3,19 		"/>
	</g>
	<g>
		<polygon class="st0" points="504.75,19 474.38,19 519.93,145.53 550.3,145.53 		"/>
	</g>
	<g>
		<polygon points="698.95,19 672.32,19 671.11,19 633.15,113.9 595.2,19 593.87,19 567.36,19 563.5,19 563.5,145.53 593.87,145.53 
			593.87,85.28 617.97,145.53 620.5,145.53 645.81,145.53 648.34,145.53 672.32,85.58 672.32,145.53 702.68,145.53 702.68,19 		"/>
	</g>
</g>
<path class="st1" d="M147.19,85.09c0,26.24-17.84,48.27-42.12,54.75v-36.22c0,0-0.33-21.43,27.22-21.43h14.75
	C147.09,83.15,147.19,84.11,147.19,85.09 M47.18,82.19c27.56,0,27.23,21.43,27.23,21.43v35.81c-23.56-6.96-40.7-28.63-40.7-54.34
	c0-0.98,0.1-1.94,0.15-2.9H47.18L47.18,82.19z M177,71.79h-18.87c-5.83-29.85-30.88-52.77-61.74-55.4
	c-3.28-8.34-6.96-13.2-6.96-13.2c-2.51,4.53-4.49,8.95-6.04,13.26C53.04,19.53,28.54,42.3,22.77,71.79H2.48l12.24,10.4h6.88
	c-0.03,0.97-0.14,1.92-0.14,2.9c0,35.84,27.34,65.29,62.46,68.66v-3.59h0v-46.54c0-34.28-37.36-31.83-37.36-31.83H35.34
	c5.18-21.54,22.6-38.28,44.52-42.42C74.1,60.53,89.43,82.8,89.43,82.8c12.63-20.67,13.42-39.45,10.69-53.58
	c22.35,3.85,40.18,20.72,45.44,42.57h-12.65c0,0-37.36-2.45-37.36,31.83v37.94l-0.05,0.01v12.25c35.79-2.65,63.95-32.38,63.95-68.73
	c0-0.98-0.11-1.93-0.15-2.9h5.45L177,71.79L177,71.79z"/>
</svg>
