<?xml version="1.0" encoding="utf-8"?>
<!-- Generator: Adobe Illustrator 27.1.1, SVG Export Plug-In . SVG Version: 6.00 Build 0)  -->
<svg version="1.1" id="레이어_1" xmlns="http://www.w3.org/2000/svg" xmlns:xlink="http://www.w3.org/1999/xlink" x="0px"
	 y="0px" viewBox="0 0 1920 1080" style="enable-background:new 0 0 1920 1080;" xml:space="preserve">
<style type="text/css">
	.st0{fill:#FF5E17;}
</style>
<g>
	<g>
		<rect x="525" y="426.59" width="48.29" height="201.19"/>
	</g>
	<g>
		<polygon points="641.76,426.59 577.38,527.19 641.76,627.78 690.05,627.78 625.67,527.19 690.05,426.59 		"/>
	</g>
	<g>
		<polygon points="861.32,426.59 708.41,426.59 708.41,474.88 800.96,474.88 704.39,579.5 704.39,627.78 861.32,627.78 
			861.32,579.5 764.75,579.5 861.32,474.88 		"/>
	</g>
</g>
<g>
	<polygon points="933.75,627.78 885.46,627.78 953.87,426.59 1002.15,426.59 	"/>
</g>
<g>
	<polygon class="st0" points="1001.28,426.59 952.99,426.59 1025.42,627.78 1073.71,627.78 	"/>
</g>
<g>
	<polygon points="1310.07,426.59 1267.73,426.59 1265.81,426.59 1205.45,577.49 1145.1,426.59 1142.99,426.59 1100.83,426.59 
		1094.7,426.59 1094.7,627.78 1142.99,627.78 1142.99,531.98 1181.31,627.78 1185.33,627.78 1225.57,627.78 1229.6,627.78 
		1267.73,532.46 1267.73,627.78 1316.01,627.78 1316.01,426.59 	"/>
</g>
</svg>
